<?xml version="1.0" ?><svg id="Layer_1" style="enable-background:new 0 0 32 32;" version="1.1" viewBox="0 0 32 32" xml:space="preserve" xmlns="http://www.w3.org/2000/svg" xmlns:xlink="http://www.w3.org/1999/xlink"><g><g><path d="M16,13c-0.5527344,0-1-0.4477539-1-1V6c0-0.5522461,0.4472656-1,1-1s1,0.4477539,1,1v6C17,12.5522461,16.5527344,13,16,13    z"/></g><g><path d="M16,27C9.9345703,27,5,22.0654297,5,16c0-4.3364258,2.5595703-8.28125,6.5214844-10.0498047    c0.5039063-0.2265625,1.0957031,0.0009766,1.3203125,0.5053711c0.2255859,0.5043945-0.0009766,1.0957031-0.5058594,1.3208008    C9.0947266,9.2236328,7,12.4516602,7,16c0,4.9624023,4.0371094,9,9,9s9-4.0375977,9-9    c0-3.5791016-2.1201172-6.8178711-5.4003906-8.2514648C19.09375,7.5273438,18.8623047,6.9375,19.0839844,6.4316406    c0.2207031-0.5048828,0.8095703-0.7363281,1.3164063-0.5161133C24.4091797,7.6674805,27,11.6259766,27,16    C27,22.0654297,22.0654297,27,16,27z"/></g></g></svg>